PathFileType	4	(X/Y/Z)	../motion_lab\static\Static03\task.trc
DataRate	CameraRate	NumFrames	NumMarkers	Units	OrigDataRate	OrigDataStartFrame	OrigNumFrames
200.000000	200.000000	4	40	mm	200.000000	55	445
Frame#	Time	C7			RBAK			CLAV			STRN			T10			RASI			RPSI			LPSI			LASI			PE01			PE02			PE03			RTH1			RTH2			RTH3			RKNE			RMKNE			RTB1			RTB2			RTB3			RANK			RMMA			RHEE			RD5M			RTOE			LTH1			LTH2			LTH3			LKNE			LMKNE			LTB1			LTB2			LTB3			LANK			LMMA			LHEE			LTOE			LD5M			LGT			RGT			
		X1	Y1	Z1	X2	Y2	Z2	X3	Y3	Z3	X4	Y4	Z4	X5	Y5	Z5	X6	Y6	Z6	X7	Y7	Z7	X8	Y8	Z8	X9	Y9	Z9	X10	Y10	Z10	X11	Y11	Z11	X12	Y12	Z12	X13	Y13	Z13	X14	Y14	Z14	X15	Y15	Z15	X16	Y16	Z16	X17	Y17	Z17	X18	Y18	Z18	X19	Y19	Z19	X20	Y20	Z20	X21	Y21	Z21	X22	Y22	Z22	X23	Y23	Z23	X24	Y24	Z24	X25	Y25	Z25	X26	Y26	Z26	X27	Y27	Z27	X28	Y28	Z28	X29	Y29	Z29	X30	Y30	Z30	X31	Y31	Z31	X32	Y32	Z32	X33	Y33	Z33	X34	Y34	Z34	X35	Y35	Z35	X36	Y36	Z36	X37	Y37	Z37	X38	Y38	Z38	X39	Y39	Z39	X40	Y40	Z40	

56	0.275	-10.0032548904419	1354.477294921875	291.043182373047	72.9709396362305	1257.77294921875	333.0868225097657	-6.168277740478519	1291.64306640625	152.6972808837891	-0.4186486005783083	1112.971435546875	62.06966400146487	4.399681568145754	1055.348754882813	279.6118469238282	117.7990798950196	885.4320678710942	105.2600021362305	56.06768798828128	921.9047241210942	302.2440795898439	-29.36196136474611	918.7307128906255	299.7181091308595	-105.2158432006837	884.7963867187505	96.3254013061524	10.60106754302979	954.9616088867192	289.0276184082032	35.02919387817384	898.845336914063	314.7615966796876	-15.60067367553712	897.0859375000005	311.3286437988282	164.8015441894532	598.4892578125002	211.8865661621095	153.9205932617188	519.754333496094	204.2821044921876	158.6309967041016	570.8288574218752	170.2334289550782	143.903305053711	453.102478027344	209.5498962402345	32.4327735900879	446.6549072265627	194.1224365234376	161.4264526367188	299.2306518554689	227.0304412841798	167.1269683837891	263.1070556640626	276.6602478027345	163.1829986572266	222.7364959716798	246.5805969238282	152.8525085449219	59.33295059204104	300.2051391601564	79.22023010253909	76.96362304687503	267.3452148437501	103.2296371459962	27.87860488891603	333.8565063476564	200.3168334960939	14.00008296966553	199.6567382812501	155.2105255126954	30.45405197143556	151.4566650390626	-168.2323303222657	622.8242797851565	187.5985717773438	-158.8732147216797	570.7438964843752	217.9989013671876	-164.9430694580079	597.710632324219	144.0251770019532	-148.4979095458985	445.1937255859377	191.0379791259766	-46.56051254272462	437.8418884277346	178.8660278320313	-183.8744659423829	299.7438964843751	267.4907226562501	-184.2026062011719	220.1133575439454	274.9654846191407	-183.5352172851563	246.9317321777345	233.5285186767579	-185.8954162597657	70.5021667480469	252.4650421142579	-106.0597305297852	75.08835601806643	238.9393157958986	-148.9222106933594	35.92153167724611	304.0061340332032	-176.9547729492188	29.63492965698244	111.4535827636719	-223.6686859130861	18.10768127441407	162.2117614746094	-194.0117797851564	789.0773925781255	177.9958953857422	201.9831390380861	796.273803710938	183.7040405273438	
57	0.28	-9.986603736877445	1354.473754882813	291.0254821777345	72.97251129150393	1257.800903320313	333.1048278808595	-6.15427398681641	1291.612670898438	152.6863861083985	-0.4023579061031344	1112.906372070313	62.11226654052737	4.396945953369142	1055.358032226563	279.6376342773439	117.7626113891602	885.455932617188	105.2750320434571	56.06316757202151	921.882690429688	302.2366638183595	-29.35297966003419	918.7421264648442	299.7129211425782	-105.2275314331055	884.800415039063	96.33314514160162	10.58810329437256	954.9009399414067	289.0339965820314	35.02518844604494	898.7932128906255	314.8063354492189	-15.63258838653565	897.0762329101567	311.3555297851564	164.8090515136719	598.4836425781252	211.8862457275392	153.9136657714844	519.7395629882815	204.2917327880861	158.3277587890626	570.517517089844	170.5033111572266	143.9136199951172	453.1037902832034	209.5498657226564	32.444637298584	446.6624450683596	194.1209564208986	161.4310607910157	299.2343139648439	227.0260772705079	167.1319732666016	263.0583801269532	276.6993713378907	163.1717987060547	222.7730102539064	246.6119842529298	152.840072631836	59.32374954223636	300.2232666015626	79.17958068847659	76.8482360839844	267.3634643554689	103.201042175293	27.88171386718751	333.8714599609376	200.3104553222657	13.98103332519532	199.665740966797	155.2095336914063	30.44838523864748	151.4664459228516	-167.7771606445313	622.8243408203127	187.6757507324219	-158.8850402832032	570.6968994140627	218.0007476806642	-164.9596862792969	597.7034912109377	144.0101928710938	-148.5034484863282	445.180847167969	191.0416412353516	-46.4064407348633	438.0237121582034	178.7006072998047	-183.8987274169922	299.7518005371095	267.5050354003907	-184.2125091552735	220.1172943115236	274.9683227539064	-183.5262145996094	246.9155883789064	233.5117645263673	-185.8945617675782	70.48977661132815	252.4579162597657	-106.0507202148438	75.10811614990237	238.9279022216798	-148.9333801269532	35.94173049926759	304.012664794922	-176.9566497802735	29.63307189941408	111.458351135254	-223.6477508544923	18.0786476135254	162.2074432373047	-194.0077209472657	789.0829467773442	177.9898223876954	202.0520019531251	796.167114257813	183.4856262207032	
58	0.285	-9.978098869323734	1354.495727539063	291.0061340332032	72.97402191162112	1257.800659179688	333.1065979003907	-6.121815204620365	1291.582397460938	152.6788330078126	-0.3724618256092073	1112.844482421875	62.1647872924805	4.409454822540285	1055.360107421875	279.6547241210939	117.8066787719727	885.4332885742192	105.2579345703126	56.05688858032229	921.8837280273442	302.2405090332032	-29.38377952575685	918.727416992188	299.7144775390626	-105.2064895629883	884.7933959960942	96.33596038818365	10.60061073303223	954.9541625976567	289.0188598632814	35.01714324951173	898.8009643554692	314.8254699707032	-15.61798858642579	897.0932006835942	311.3273315429689	164.8056793212891	598.4831542968752	211.8992156982423	153.9128875732422	519.7354125976565	204.3077239990236	158.3231658935547	570.5285644531252	170.5129699707032	143.9068450927735	453.103210449219	209.5558166503907	32.44387054443361	446.6568603515627	194.1194763183595	161.4804992675782	299.2612609863282	226.9844665527345	167.1340026855469	263.0798645019532	276.6919555664064	163.1615447998047	222.7402801513673	246.6146697998048	152.8542633056641	59.33357620239261	300.2148742675782	79.22039794921878	76.92369079589847	267.3406982421876	103.2030105590821	27.88559913635255	333.8627014160157	200.3088836669923	13.99945354461671	199.6547241210939	155.2159118652344	30.44922828674318	151.4588317871094	-167.7889556884766	622.7937011718752	187.6617736816407	-158.8686828613282	570.7402954101565	218.000457763672	-165.0022888183594	597.685241699219	143.9846801757813	-148.6943664550782	445.1212463378909	190.9273376464844	-46.58096313476564	437.7630615234377	178.9510498046876	-183.8850250244141	299.7647399902345	267.4971618652345	-184.2161712646485	220.0955047607423	274.9664916992189	-183.5284423828126	246.9384918212892	233.5091857910157	-185.8926849365235	70.49661254882815	252.4601287841798	-106.0606231689454	75.12005615234378	238.913299560547	-148.9289550781251	35.93466949462892	304.0093383789064	-176.9466094970704	29.62501525878908	111.4569854736329	-223.6611480712892	18.05692291259766	162.2013244628907	-194.0178375244142	789.0871582031255	177.9876403808594	201.9854888916017	796.260864257813	183.7232818603516	
59	0.29	-9.975578308105472	1354.512084960938	290.9822082519532	72.98309326171878	1257.78369140625	333.1084289550782	-6.112043857574466	1291.551391601563	152.6681213378907	-0.3761902749538424	1112.782104492188	62.22387313842776	4.420839786529543	1055.371704101563	279.6520996093751	117.7586517333985	885.4485473632817	105.3095397949219	56.05698394775393	921.8811035156255	302.234832763672	-29.38391876220705	918.7368774414067	299.7162475585939	-105.203971862793	884.8117065429692	96.33341217041021	10.5873498916626	954.9685058593755	289.0199279785157	34.9353485107422	898.701049804688	314.871795654297	-15.64857196807862	897.1013183593755	311.3311767578126	164.8132781982422	598.4951782226565	211.8963470458986	153.9127960205079	519.765075683594	204.2893829345704	158.3203735351563	570.5223388671877	170.5252075195313	143.9036254882813	453.0813903808596	209.5773315429689	32.42451095581056	446.6516723632815	194.1365203857423	161.4105834960938	299.1713256835939	227.0774383544923	167.1100311279297	263.0433349609376	276.7224731445314	163.1949615478516	222.7806854248048	246.6082611083986	152.8463134765626	59.31576919555667	300.2252807617189	79.21941375732425	76.91986083984378	267.3414611816407	103.199821472168	27.91575431823732	333.862030029297	200.3068695068361	13.988507270813	199.6656799316407	155.2095947265626	30.43783760070802	151.4675292968751	-168.2066650390626	622.7898559570315	187.5761718750001	-158.893051147461	570.7224731445315	217.9686431884767	-164.9838409423829	597.688903808594	144.0019989013672	-148.6971130371094	445.1188049316409	190.9151458740235	-46.41183853149415	438.0027465820315	178.7314910888672	-183.8767700195313	299.7352294921876	267.489471435547	-184.2188110351563	220.1162719726564	274.9667968750001	-183.5558166503907	246.8957366943361	233.5215301513673	-185.9018249511719	70.51002502441409	252.4690856933595	-106.0532684326172	75.09379577636722	238.9244689941407	-148.9287567138672	35.92100143432619	303.9992675781251	-176.9524841308594	29.63257408142091	111.4548568725587	-223.6616821289064	18.04110336303712	162.2005920410157	-194.0304565429689	789.0614624023442	177.9799804687501	202.0414581298829	796.1899414062505	183.4801025390626	
